mtllib E:\XNALara XPS\data\! Medical\Biohazard wastebin (NBA 2K11)\biohazard_wastebin.mtl
g Model001_Model001_5_Material78_1.0_0.0_0.0
usemtl Model001_Material001
v 0.288295 0.712435 -0.08176167
vn 0.5051842 -0.8630064 -0.002971405
vt 0.5 1.030273
v 0.2770038 0.707206 -0.4826869
vn 0.5051842 -0.8630064 -0.002971405
vt 0.5 2
v 0.3060548 0.722834 -0.08228502
vn 0.5051842 -0.8630064 -0.002971405
vt 0.25 1.04248
v -0.2330677 0.711031 -0.4687793
vn -0.8392964 -0.5420927 0.04143643
vt -1.01758 0.9130859
v -0.2391131 0.751063 -0.06750073
vn -0.9997247 -0.01945201 -0.0131205
vt -0.615723 0.9794919
v -0.2499212 0.73673 -0.4481377
vn -0.8184953 -0.572763 0.0448094
vt -1.0459 0.976562
v -0.2393334 0.726924 -0.06741235
vn -0.922709 -0.3106371 0.2282818
vt -0.600098 0.9482419
v -0.2393334 0.726924 -0.06741235
vn -0.7490821 0.009249507 0.6624126
vt -0.600098 0.9482419
v -0.1793352 0.750802 0.0001020848
vn -0.7422069 -0.02827111 0.6695741
vt -0.029236 0.976562
v -0.2391131 0.751063 -0.06750073
vn -0.7490821 0.009249507 0.6624126
vt -0.615723 0.9794919
v -0.1781335 0.726653 0.0001495899
vn -0.6503386 -0.4549847 0.6083163
vt -0.009155 0.945312
v 0.2780153 0.780889 -0.08171094
vn 0.5641738 0.7590656 0.3248495
vt -0.023071 1.676514
v -0.1793352 0.750802 0.0001020848
vn 0.01861582 0.900188 0.4351034
vt -0.521973 1.612549
v 0.2525347 0.747564 -0.01167197
vn 0.164984 0.8659892 0.4720624
vt -0.03949 1.612549
v -0.2102361 0.784551 -0.06839659
vn -0.4415933 0.85523 0.2712509
vt -0.539551 1.676514
v 0.2954664 0.732641 -0.4630077
vn 0.004021928 0.9921039 -0.1253545
vt -0.005592 2.0018
v -0.2102361 0.784551 -0.06839659
vn 0.004022623 0.992104 -0.1253537
vt -0.539551 1.676514
v 0.2780153 0.780889 -0.08171094
vn 0.004022623 0.992104 -0.1253537
vt -0.023071 1.676514
v -0.2499212 0.73673 -0.4481377
vn -0.05164564 0.9914947 -0.1194611
vt -0.557129 2.0018
v 0.24432 0.712901 -0.03022309
vn 0.4273404 -0.04082079 0.9031688
vt -0.099976 0.607422
v 0.2624135 0.185113 -0.07929528
vn 0.6036757 -0.05326398 0.7954486
vt 0 0
v 0.288295 0.712435 -0.08176167
vn 0.7601238 -0.03427292 0.6488737
vt 0 0.607422
v 0.2228827 0.185486 -0.05040416
vn 0.3192255 -0.04918648 0.9464014
vt -0.099976 0
v -0.1697396 0.716005 -0.01893744
vn -0.35118 -0.03226331 0.9357519
vt -0.481934 0.607422
v -0.1633305 0.188381 -0.03987448
vn -0.2635415 -0.04144441 0.9637573
vt -0.464844 0
v -0.2217682 0.716259 -0.06785851
vn -0.4479284 -0.7950801 0.4089105
vt -0.518066 0.908203
v -0.1697396 0.716005 -0.01893744
vn -0.3291711 -0.8787897 0.345507
vt 0.006207 0.908203
v -0.2393334 0.726924 -0.06741235
vn -0.5183342 -0.8547902 0.02575558
vt -0.600098 0.9482419
v -0.2330677 0.711031 -0.4687793
vn -0.5183342 -0.8547902 0.02575558
vt -1.01758 0.9130859
v -0.2217682 0.716259 -0.06785851
vn -0.5183342 -0.8547902 0.02575558
vt -0.518066 0.908203
v 0.2770038 0.707206 -0.4826869
vn 0.8306683 -0.5567411 -0.005432576
vt -1.0459 0.9482419
v 0.3062744 0.746973 -0.0823702
vn 0.9968899 -0.037824 -0.06913537
vt -0.600098 0.976562
v 0.3060548 0.722834 -0.08228502
vn 0.9973609 -0.009325809 -0.07200093
vt -0.628906 0.9130859
v 0.2954664 0.732641 -0.4630077
vn 0.8095858 -0.5870009 -0.0008847322
vt -1.03027 0.9794919
v 0.2954664 0.732641 -0.4630077
vn -0.01675489 0.619435 -0.7848691
vt 0.399902 1.981918
v -0.2330677 0.711031 -0.4687793
vn -0.01675428 0.6194279 -0.7848748
vt 6.1E-05 1.905579
v -0.2499212 0.73673 -0.4481377
vn -0.01675428 0.6194279 -0.7848748
vt 6.4E-05 1.981918
v 0.2770038 0.707206 -0.4826869
vn -0.01675489 0.619435 -0.7848691
vt 0.399902 1.89978
v 0.2770038 0.707206 -0.4826869
vn -0.02757057 -0.046344 -0.9985449
vt 0.399902 1.893005
v -0.2161523 0.187678 -0.4449582
vn -0.02757057 -0.04634419 -0.9985449
vt 6.9E-05 1.005859
v -0.2330677 0.711031 -0.4687793
vn -0.0275728 -0.0463419 -0.998545
vt 6.4E-05 1.893005
v 0.2517912 0.18417 -0.4577149
vn -0.02756833 -0.0463464 -0.9985449
vt 0.399902 1
v -0.2055292 0.188622 -0.06653215
vn -0.5473047 -0.03831171 0.8360561
vt -0.56543 0.0009769797
v -0.2217682 0.716259 -0.06785851
vn -0.6849413 -0.0192506 0.7283439
vt -0.56543 0.607422
v 0.2525347 0.747564 -0.01167197
vn 0.02727626 0.003363549 0.9996222
vt -0.615723 0.9619139
v -0.1781335 0.726653 0.0001495899
vn 0.02727759 0.003322498 0.9996224
vt -0.977051 0.9482419
v 0.2528501 0.723421 -0.01159921
vn 0.02727535 0.003365098 0.9996223
vt -0.600098 0.9306641
v -0.1793352 0.750802 0.0001020848
vn 0.02727759 0.003320978 0.9996224
vt -0.974609 0.958984
v -0.1697396 0.716005 -0.01893744
vn 0.006804659 -0.8719988 0.4894608
vt -0.977051 0.925781
v 0.2528501 0.723421 -0.01159921
vn 0.006805218 -0.87201 0.4894408
vt -0.615723 0.939453
v -0.1781335 0.726653 0.0001495899
vn 0.006805095 -0.8719982 0.4894619
vt -0.974609 0.936523
v 0.24432 0.712901 -0.03022309
vn 0.006804785 -0.8720104 0.4894401
vt -0.600098 0.908203
v 0.2528501 0.723421 -0.01159921
vn 0.7965971 0.009303262 0.604439
vt -0.024963 0.9482419
v 0.3062744 0.746973 -0.0823702
vn 0.7984725 -0.00219697 0.6020274
vt -0.595703 0.976562
v 0.2525347 0.747564 -0.01167197
vn 0.7961028 0.0122246 0.6050379
vt -0.009155 0.9794919
v 0.3060548 0.722834 -0.08228502
vn 0.7989348 -0.00514443 0.6013957
vt -0.615723 0.945312
v 0.2528501 0.723421 -0.01159921
vn 0.4781172 -0.7981699 0.3665089
vt -0.600098 0.9482419
v 0.288295 0.712435 -0.08176167
vn 0.4781165 -0.7981701 0.3665094
vt 0.006207 0.908203
v 0.3060548 0.722834 -0.08228502
vn 0.4781165 -0.7981701 0.3665094
vt -0.009155 0.945312
v 0.24432 0.712901 -0.03022309
vn 0.3693451 -0.8713458 0.3230182
vt -0.518066 0.908203
v 0.288295 0.712435 -0.08176167
vn 0.3693451 -0.8713458 0.3230182
vt 0.006207 0.908203
v 0.2528501 0.723421 -0.01159921
vn 0.3693451 -0.8713458 0.3230182
vt -0.600098 0.9482419
v -0.2217682 0.716259 -0.06785851
vn -0.9991202 -0.0308681 0.02838832
vt 0.15564 1.001953
v -0.2161523 0.187678 -0.4449582
vn -0.9991243 -0.03080899 0.02830541
vt 0.3396 1.843506
v -0.2055292 0.188622 -0.06653215
vn -0.9991334 -0.03068019 0.0281253
vt 0.099182 1.876648
v -0.2330677 0.711031 -0.4687793
vn -0.9991113 -0.03099279 0.02856301
vt 0.443115 1.041992
v 0.288295 0.712435 -0.08176167
vn 0.9984005 -0.04931711 -0.02764432
vt 0.443115 1.041992
v 0.2517912 0.18417 -0.4577149
vn 0.9984011 -0.04925929 -0.02772526
vt 0.099182 1.876648
v 0.2770038 0.707206 -0.4826869
vn 0.9983992 -0.04943892 -0.02747255
vt 0.15564 1.001953
v 0.2624135 0.185113 -0.07929528
vn 0.9984024 -0.04913339 -0.0279024
vt 0.3396 1.843506
v 0.3062744 0.746973 -0.0823702
vn 0.7557448 0.6259711 0.19238
vt -0.005711 1.668701
v 0.2954664 0.732641 -0.4630077
vn 0.7670115 0.6399911 -0.04587739
vt -0.005592 2.0018
v -0.2391131 0.751063 -0.06750073
vn -0.7321967 0.6377892 0.238983
vt -0.557129 1.668701
v -0.1793352 0.750802 0.0001020848
vn -0.6234078 0.5523889 0.5533798
vt -0.521973 1.612549
f -74/-74/-74 -73/-73/-73 -72/-72/-72
f -71/-71/-71 -70/-70/-70 -69/-69/-69
f -68/-68/-68 -70/-70/-70 -71/-71/-71
f -67/-67/-67 -66/-66/-66 -65/-65/-65
f -64/-64/-64 -66/-66/-66 -68/-68/-68
f -63/-63/-63 -62/-62/-62 -61/-61/-61
f -63/-63/-63 -60/-60/-60 -62/-62/-62
f -59/-59/-59 -58/-58/-58 -57/-57/-57
f -59/-59/-59 -56/-56/-56 -60/-60/-60
f -55/-55/-55 -54/-54/-54 -53/-53/-53
f -55/-55/-55 -52/-52/-52 -54/-54/-54
f -51/-51/-51 -52/-52/-52 -55/-55/-55
f -51/-51/-51 -50/-50/-50 -52/-52/-52
f -64/-64/-64 -49/-49/-49 -48/-48/-48
f -68/-68/-68 -49/-49/-49 -64/-64/-64
f -47/-47/-47 -46/-46/-46 -45/-45/-45
f -44/-44/-44 -43/-43/-43 -42/-42/-42
f -41/-41/-41 -43/-43/-43 -44/-44/-44
f -40/-40/-40 -39/-39/-39 -38/-38/-38
f -37/-37/-37 -39/-39/-39 -40/-40/-40
f -36/-36/-36 -35/-35/-35 -34/-34/-34
f -33/-33/-33 -35/-35/-35 -36/-36/-36
f -32/-32/-32 -51/-51/-51 -31/-31/-31
f -50/-50/-50 -51/-51/-51 -32/-32/-32
f -30/-30/-30 -29/-29/-29 -28/-28/-28
f -27/-27/-27 -29/-29/-29 -30/-30/-30
f -26/-26/-26 -25/-25/-25 -24/-24/-24
f -23/-23/-23 -25/-25/-25 -26/-26/-26
f -22/-22/-22 -21/-21/-21 -20/-20/-20
f -19/-19/-19 -21/-21/-21 -22/-22/-22
f -18/-18/-18 -17/-17/-17 -16/-16/-16
f -15/-15/-15 -14/-14/-14 -13/-13/-13
f -12/-12/-12 -11/-11/-11 -10/-10/-10
f -9/-9/-9 -11/-11/-11 -12/-12/-12
f -8/-8/-8 -7/-7/-7 -6/-6/-6
f -5/-5/-5 -7/-7/-7 -8/-8/-8
f -61/-61/-61 -4/-4/-4 -63/-63/-63
f -3/-3/-3 -63/-63/-63 -4/-4/-4
f -2/-2/-2 -60/-60/-60 -56/-56/-56
f -1/-1/-1 -60/-60/-60 -2/-2/-2

