mtllib D:\XNALara XPS\data\! Medical and scientific research\! Medicine\Medicine - biohazard large (HL2 series)\biohazard_jar_large.mtl
g Model001_5_Material5162_1.0_0.0_0.0
usemtl Model001_Material001
v -0.0403484 0.192022 -0.0688732
vn -0.1863327 0.8820392 -0.4327666
vt 0.3533 1.3537
v -0.000107096 0.192022 -0.0796564
vn -7.490418E-07 0.9232857 -0.3841139
vt 0.3612 1.3832
v -0.000107096 0.185788 -0.0872701
vn -0.05665409 0.5699602 -0.8197168
vt 0.3668 1.3832
v -0.000107096 0.185788 -0.0872701
vn -0.05438492 0.5471315 -0.835278
vt 0.3668 1.3832
v -0.0441552 0.185788 -0.075467
vn -0.4518783 0.4280603 -0.7826688
vt 0.3581 1.3509
v -0.0403484 0.192022 -0.0688732
vn -0.1863327 0.8820392 -0.4327666
vt 0.3533 1.3537
v -0.0918981 0.128276 0
vn -0.8336115 0.5460542 0.08316681
vt 0.0067 1.2369
v -0.0710584 0.147757 0.0410266
vn -0.7728858 0.4511489 0.4462199
vt 0.0369 1.2512
v -0.0820532 0.147757 0
vn -0.8924937 0.4510599 2.832922E-05
vt 0.0067 1.2512
v -0.117871 0.0964903 0
vn -0.9451632 0.3231356 -0.04743387
vt 0.0067 1.2134
v -0.0795875 0.128276 0.0459503
vn -0.7404166 0.5830963 0.3343382
vt 0.0369 1.2369
v -0.0918981 0.128276 0
vn -0.8343282 0.5468769 0.06944212
vt 0.0067 1.2369
v -0.0410266 0.147757 0.0710584
vn -0.4462402 0.4511672 0.7728634
vt 0.067 1.2512
v -0.117871 -0.167516 0
vn -0.9000603 -0.4357655 1.954384E-06
vt 0.0067 1.0188
v -0.102077 0.0964903 0.058934
vn -0.814882 0.4292982 0.389449
vt 0.0369 1.2134
v -0.0795875 0.128276 0.0459503
vn -0.7404166 0.5830963 0.3343382
vt 0.0369 1.2369
v -0.117871 0.0964903 0
vn -0.9448994 0.324698 -0.04166814
vt 0.0067 1.2134
v -0.102077 0.0964903 0.058934
vn -0.814882 0.4292982 0.389449
vt 0.0369 1.2134
v -0.0459503 0.128276 0.0795875
vn -0.3343979 0.504777 0.7958507
vt 0.067 1.2369
v 0 0.147757 0.0820532
vn -0.04841594 0.4505267 0.8914492
vt 0.0971 1.2512
v -0.0918981 0.128276 0
vn -0.8343282 0.5468769 0.06944212
vt 0.3683 1.2369
v -0.102077 0.0964903 -0.058934
vn -0.8206221 0.319524 -0.4737971
vt 0.3382 1.2134
v -0.117871 0.0964903 0
vn -0.9470066 0.3168956 -0.05249441
vt 0.3683 1.2134
v -0.0795875 0.128276 -0.0459503
vn -0.6966062 0.5172622 -0.4971717
vt 0.3382 1.2369
v -0.0820532 0.147757 0
vn -0.8924937 0.4510599 2.832922E-05
vt 0.3683 1.2512
v -0.0710584 0.147757 -0.0410266
vn -0.7477382 0.4506364 -0.4876622
vt 0.3382 1.2512
v -0.0710584 0.147757 -0.0410266
vn -0.7477382 0.4506364 -0.4876622
vt 0.3382 1.2512
v -0.0459503 0.128276 -0.0795875
vn -0.4164309 0.5534689 -0.7212888
vt 0.3081 1.2369
v -0.0795875 0.128276 -0.0459503
vn -0.6966062 0.5172622 -0.4971717
vt 0.3382 1.2369
v -0.0410266 0.147757 -0.0710584
vn -0.4462199 0.4511489 -0.7728858
vt 0.3081 1.2512
v 0 0.128276 -0.0918981
vn 1.53592E-06 0.5534431 -0.8328871
vt 0.2779 1.2369
v 0 0.147757 -0.0820532
vn -2.806569E-05 0.4510598 -0.8924937
vt 0.2779 1.2512
v 0.0459503 0.128276 -0.0795875
vn 0.4164349 0.5534529 -0.7212988
vt 0.2478 1.2369
v 0.0410266 0.147757 -0.0710584
vn 0.4462402 0.4511672 -0.7728634
vt 0.2478 1.2512
v 0.0795875 0.128276 -0.0459503
vn 0.7212888 0.5534689 -0.4164309
vt 0.2177 1.2369
v 0.0710584 0.147757 -0.0410266
vn 0.7728858 0.4511489 -0.4462199
vt 0.2177 1.2512
v 0.0918981 0.128276 0
vn 0.8328871 0.5534431 1.53592E-06
vt 0.1875 1.2369
v 0.0820532 0.147757 0
vn 0.8924937 0.4510598 -2.806569E-05
vt 0.1875 1.2512
v 0.0795875 0.128276 0.0459503
vn 0.7212988 0.5534529 0.4164349
vt 0.1574 1.2369
v 0.0710584 0.147757 0.0410266
vn 0.7728634 0.4511672 0.4462402
vt 0.1574 1.2512
v 0.0459503 0.128276 0.0795875
vn 0.4164309 0.5534689 0.7212888
vt 0.1273 1.2369
v 0.0410266 0.147757 0.0710584
vn 0.4462199 0.4511489 0.7728858
vt 0.1273 1.2512
v 0 0.128276 0.0918981
vn -0.08225826 0.5172163 0.8518925
vt 0.0971 1.2369
v 0 0.147757 0.0820532
vn -0.04841594 0.4505267 0.8914492
vt 0.0971 1.2512
v -0.0459503 0.128276 0.0795875
vn -0.3343979 0.504777 0.7958507
vt 0.067 1.2369
v 0 0.128276 0.0918981
vn -0.08225826 0.5172163 0.8518925
vt 0.0971 1.2369
v -0.058934 0.0964903 0.102077
vn -0.4737971 0.319524 0.8206221
vt 0.067 1.2134
v -0.102077 -0.167516 0.058934
vn -0.7794694 -0.4357632 0.4500422
vt 0.0369 1.0188
v -0.0823694 -0.192022 0
vn -0.4035374 -0.9149631 4.652086E-06
vt 0.0067 1.0007
v -0.0713338 -0.192022 0.0411847
vn -0.2576693 -0.954712 0.1487668
vt 0.0369 1.0007
v -0.058934 -0.167516 0.102077
vn -0.450044 -0.435762 0.779469
vt 0.067 1.0188
v -0.0411847 -0.192022 0.0713338
vn -0.1487688 -0.9547127 0.2576654
vt 0.067 1.0007
v 0 -0.167516 0.117871
vn 0.1280257 -0.2351802 0.9634831
vt 0.0971 1.0188
v 0 -0.192022 0.0823694
vn 3.544732E-06 -0.9547154 0.2975206
vt 0.0971 1.0007
v 0.058934 -0.167516 0.102077
vn 0.4500422 -0.4357632 0.7794694
vt 0.1273 1.0188
v 0.0411847 -0.192022 0.0713338
vn 0.1487668 -0.954712 0.2576693
vt 0.1273 1.0007
v 0.102077 -0.167516 0.058934
vn 0.779469 -0.435762 0.450044
vt 0.1574 1.0188
v 0.0713338 -0.192022 0.0411847
vn 0.2576654 -0.9547127 0.1487688
vt 0.1574 1.0007
v 0.117871 -0.167516 0
vn 0.90006 -0.435766 -1.93038E-06
vt 0.1875 1.0188
v 0.0823694 -0.192022 0
vn 0.2975206 -0.9547154 -3.544732E-06
vt 0.1875 1.0007
v 0.102077 -0.167516 -0.058934
vn 0.7794694 -0.4357632 -0.4500422
vt 0.2177 1.0188
v 0.0713338 -0.192022 -0.0411847
vn 0.2576693 -0.954712 -0.1487668
vt 0.2177 1.0007
v 0.058934 -0.167516 -0.102077
vn 0.450044 -0.435762 -0.779469
vt 0.2478 1.0188
v 0.0411847 -0.192022 -0.0713338
vn 0.1487688 -0.9547127 -0.2576654
vt 0.2478 1.0007
v 0 -0.167516 -0.117871
vn -1.93038E-06 -0.435766 -0.90006
vt 0.2779 1.0188
v 0 -0.192022 -0.0823694
vn -3.544732E-06 -0.9547154 -0.2975206
vt 0.2779 1.0007
v -0.058934 -0.167516 -0.102077
vn -0.4500422 -0.4357632 -0.7794694
vt 0.3081 1.0188
v -0.0411847 -0.192022 -0.0713338
vn -0.1487668 -0.954712 -0.2576693
vt 0.3081 1.0007
v -0.102077 -0.167516 -0.058934
vn -0.779469 -0.435762 -0.450044
vt 0.3382 1.0188
v -0.0713338 -0.192022 -0.0411847
vn -0.2576654 -0.9547127 -0.1487688
vt 0.3382 1.0007
v -0.117871 -0.167516 0
vn -0.9000603 -0.4357655 1.954384E-06
vt 0.3683 1.0188
v -0.0823694 -0.192022 0
vn -0.3861912 -0.9224188 4.452114E-06
vt 0.3683 1.0007
v 0 0.0964903 0.117871
vn 0.08275534 0.2233738 0.9712135
vt 0.0971 1.2134
v 0 0.0964903 0.117871
vn 0.08275534 0.2233738 0.9712135
vt 0.0971 1.2134
v 0 -0.167516 0.117871
vn 0.1280257 -0.2351802 0.9634831
vt 0.0971 1.0188
v 0.058934 0.0964903 0.102077
vn 0.4738038 0.3195179 0.8206207
vt 0.1273 1.2134
v 0.102077 0.0964903 0.058934
vn 0.8206221 0.319524 0.4737971
vt 0.1574 1.2134
v 0.117871 0.0964903 0
vn 0.9475721 0.319542 6.700541E-06
vt 0.1875 1.2134
v 0.102077 0.0964903 -0.058934
vn 0.8206207 0.3195179 -0.4738038
vt 0.2177 1.2134
v 0.058934 0.0964903 -0.102077
vn 0.4737971 0.319524 -0.8206221
vt 0.2478 1.2134
v 0 0.0964903 -0.117871
vn 6.700541E-06 0.319542 -0.9475721
vt 0.2779 1.2134
v -0.058934 0.0964903 -0.102077
vn -0.4738038 0.3195179 -0.8206207
vt 0.3081 1.2134
v -0.117871 0.0964903 0
vn -0.9489744 0.3086339 -0.06475074
vt 0.3683 1.2134
v -0.117871 0.0964903 0
vn -0.9489744 0.3086339 -0.06475074
vt 0.3683 1.2134
v 0.043941 0.185788 -0.075467
vn 0.4518787 0.4280601 -0.7826687
vt 0.3581 1.4154
v 0.0401342 0.192022 -0.0688732
vn 0.1920559 0.9232886 -0.3326449
vt 0.3533 1.4127
v 0.0695922 0.192022 -0.0394151
vn 0.3326459 0.9232885 -0.1920549
vt 0.3317 1.4342
v 0.0761861 0.185788 -0.043222
vn 0.7826688 0.4280603 -0.4518783
vt 0.3345 1.4391
v 0.0803729 0.192022 0.000826138
vn 0.3840253 0.9233226 1.421761E-05
vt 0.3022 1.4421
v 0.0879892 0.185788 0.000826138
vn 0.9037191 0.428126 1.339038E-05
vt 0.3022 1.4477
v 0.0695922 0.192022 0.0410648
vn 0.332653 0.923287 0.19205
vt 0.2727 1.4342
v 0.0761861 0.185788 0.0448717
vn 0.7826668 0.4280659 0.4518764
vt 0.2699 1.4391
v 0.0401342 0.192022 0.0705229
vn 0.1920561 0.9232885 0.3326452
vt 0.2511 1.4127
v 0.0439411 0.185788 0.0771168
vn 0.4518783 0.4280603 0.7826688
vt 0.2463 1.4154
v -0.000107089 0.192022 0.0813061
vn 7.496888E-07 0.9232857 0.3841139
vt 0.2432 1.3832
v -0.000107089 0.185788 0.0889199
vn 4.79426E-07 0.4280579 0.9037513
vt 0.2377 1.3832
v -0.0403483 0.192022 0.0705229
vn -0.1920559 0.9232886 0.3326449
vt 0.2511 1.3537
v -0.0441552 0.185788 0.0771168
vn -0.4518787 0.4280601 0.7826687
vt 0.2463 1.3509
v -0.0698064 0.192022 0.0410649
vn -0.332643 0.9232889 0.192058
vt 0.2727 1.3321
v -0.0764003 0.185788 0.0448717
vn -0.7826653 0.4280608 0.451884
vt 0.2699 1.3272
v -0.0805896 0.192022 0.000826145
vn -0.3841151 0.9232852 4.270651E-06
vt 0.3022 1.3242
v -0.0882034 0.185788 0.000826146
vn -0.9518547 0.3060838 0.01689279
vt 0.3022 1.3186
v -0.0698064 0.192022 -0.0394151
vn -0.3326449 0.9232886 -0.1920559
vt 0.3317 1.3321
v -0.0764003 0.185788 -0.043222
vn -0.7826687 0.4280601 -0.4518787
vt 0.3345 1.3272
v -0.0441552 0.149187 -0.075467
vn -0.3535563 -0.7071068 -0.6123708
vt 0.3465 1.3598
v -0.000107096 0.149187 -0.0872701
vn 0 -0.7071068 -0.7071068
vt 0.353 1.3841
v -0.0764003 0.149187 -0.043222
vn -0.6123708 -0.7071068 -0.3535563
vt 0.3288 1.3421
v -0.0882034 0.149187 0.000826146
vn -0.8501932 -0.5246475 0.04377668
vt 0.3046 1.3356
v -0.0764003 0.149187 0.0448717
vn -0.6123683 -0.7071068 0.3535607
vt 0.2804 1.3421
v -0.0441552 0.149187 0.0771168
vn -0.3535563 -0.7071068 0.6123708
vt 0.2627 1.3598
v -0.000107089 0.149187 0.0889199
vn 0 -0.7071068 0.7071068
vt 0.2562 1.3841
v 0.0439411 0.149187 0.0771168
vn 0.3535563 -0.7071068 0.6123708
vt 0.2627 1.4083
v 0.0761861 0.149187 0.0448717
vn 0.6123683 -0.7071068 0.3535607
vt 0.2804 1.426
v 0.0879892 0.149187 0.000826138
vn 0.7071068 -0.7071068 5.135483E-06
vt 0.3046 1.4325
v 0.0761861 0.149187 -0.043222
vn 0.6123708 -0.7071068 -0.3535563
vt 0.3288 1.426
v 0.043941 0.149187 -0.075467
vn 0.3535563 -0.7071068 -0.6123708
vt 0.3465 1.4083
v -0.0882034 0.185788 0.000826146
vn -0.9561265 0.2929259 0.004057504
vt 0.0015 1.3069
v -0.0882034 0.149187 0.000826146
vn -0.8633187 -0.5037981 0.02946651
vt 0.0015 1.2614
v -0.0764003 0.185788 0.0448717
vn -0.7826653 0.4280608 0.451884
vt 0.0314 1.3069
v -0.0764003 0.149187 0.0448717
vn -0.6123683 -0.7071068 0.3535607
vt 0.0314 1.2614
v -0.0441552 0.185788 0.0771168
vn -0.4518787 0.4280601 0.7826687
vt 0.0614 1.3069
v -0.0441552 0.149187 0.0771168
vn -0.3535563 -0.7071068 0.6123708
vt 0.0614 1.2614
v -0.000107089 0.185788 0.0889199
vn 4.79426E-07 0.4280579 0.9037513
vt 0.0914 1.3069
v -0.000107089 0.149187 0.0889199
vn 0 -0.7071068 0.7071068
vt 0.0914 1.2614
v 0.0439411 0.185788 0.0771168
vn 0.4518783 0.4280603 0.7826688
vt 0.1213 1.3069
v 0.0439411 0.149187 0.0771168
vn 0.3535563 -0.7071068 0.6123708
vt 0.1213 1.2614
v 0.0761861 0.185788 0.0448717
vn 0.7826668 0.4280659 0.4518764
vt 0.1513 1.3069
v 0.0761861 0.149187 0.0448717
vn 0.6123683 -0.7071068 0.3535607
vt 0.1513 1.2614
v 0.0879892 0.185788 0.000826138
vn 0.9037191 0.428126 1.339038E-05
vt 0.1813 1.3069
v 0.0879892 0.149187 0.000826138
vn 0.7071068 -0.7071068 5.135483E-06
vt 0.1813 1.2614
v 0.0761861 0.185788 -0.043222
vn 0.7826688 0.4280603 -0.4518783
vt 0.2113 1.3069
v 0.0761861 0.149187 -0.043222
vn 0.6123708 -0.7071068 -0.3535563
vt 0.2113 1.2614
v 0.043941 0.185788 -0.075467
vn 0.4518787 0.4280601 -0.7826687
vt 0.2412 1.3069
v 0.043941 0.149187 -0.075467
vn 0.3535563 -0.7071068 -0.6123708
vt 0.2412 1.2614
v -0.000107096 0.185788 -0.0872701
vn -0.05438492 0.5471315 -0.835278
vt 0.2712 1.3069
v -0.000107096 0.149187 -0.0872701
vn 0 -0.7071068 -0.7071068
vt 0.2712 1.2614
v -0.0441552 0.185788 -0.075467
vn -0.4518783 0.4280603 -0.7826688
vt 0.3012 1.3069
v -0.0441552 0.149187 -0.075467
vn -0.3535563 -0.7071068 -0.6123708
vt 0.3012 1.2614
v -0.0764003 0.185788 -0.043222
vn -0.7826687 0.4280601 -0.4518787
vt 0.3311 1.3069
v -0.0764003 0.149187 -0.043222
vn -0.6123708 -0.7071068 -0.3535563
vt 0.3311 1.2614
v -0.0882034 0.185788 0.000826146
vn -0.9561265 0.2929259 0.004057504
vt 0.3611 1.3069
v -0.0882034 0.149187 0.000826146
vn -0.8633187 -0.5037981 0.02946651
vt 0.3611 1.2614
v -0.0713338 -0.192022 -0.0411847
vn -0.2576654 -0.9547127 -0.1487688
vt 0.3459 1.1256
v -0.0411847 -0.192022 -0.0713338
vn -0.1487668 -0.954712 -0.2576693
vt 0.3602 1.1113
v -0.0823694 -0.192022 0
vn -0.3861912 -0.9224188 4.452114E-06
vt 0.3263 1.1308
v -0.0713338 -0.192022 0.0411847
vn -0.2576693 -0.954712 0.1487668
vt 0.3068 1.1256
v -0.0411847 -0.192022 0.0713338
vn -0.1487688 -0.9547127 0.2576654
vt 0.2925 1.1113
v 0 -0.192022 0.0823694
vn 3.544732E-06 -0.9547154 0.2975206
vt 0.2873 1.0918
v 0.0411847 -0.192022 0.0713338
vn 0.1487668 -0.954712 0.2576693
vt 0.2925 1.0723
v 0.0713338 -0.192022 0.0411847
vn 0.2576654 -0.9547127 0.1487688
vt 0.3068 1.058
v 0.0823694 -0.192022 0
vn 0.2975206 -0.9547154 -3.544732E-06
vt 0.3263 1.0527
v 0.0713338 -0.192022 -0.0411847
vn 0.2576693 -0.954712 -0.1487668
vt 0.3459 1.058
v 0.0411847 -0.192022 -0.0713338
vn 0.1487688 -0.9547127 -0.2576654
vt 0.3602 1.0723
v 0 -0.192022 -0.0823694
vn -3.544732E-06 -0.9547154 -0.2975206
vt 0.3654 1.0918
f -152/-152/-152 -154/-154/-154 -153/-153/-153
f -149/-149/-149 -151/-151/-151 -150/-150/-150
f -146/-146/-146 -148/-148/-148 -147/-147/-147
f -143/-143/-143 -145/-145/-145 -144/-144/-144
f -144/-144/-144 -147/-147/-147 -148/-148/-148
f -147/-147/-147 -144/-144/-144 -142/-142/-142
f -140/-140/-140 -145/-145/-145 -141/-141/-141
f -137/-137/-137 -139/-139/-139 -138/-138/-138
f -144/-144/-144 -140/-140/-140 -136/-136/-136
f -136/-136/-136 -142/-142/-142 -144/-144/-144
f -142/-142/-142 -136/-136/-136 -135/-135/-135
f -132/-132/-132 -134/-134/-134 -133/-133/-133
f -131/-131/-131 -133/-133/-133 -134/-134/-134
f -134/-134/-134 -130/-130/-130 -131/-131/-131
f -129/-129/-129 -131/-131/-131 -130/-130/-130
f -126/-126/-126 -128/-128/-128 -127/-127/-127
f -125/-125/-125 -127/-127/-127 -129/-129/-129
f -127/-127/-127 -125/-125/-125 -124/-124/-124
f -123/-123/-123 -124/-124/-124 -125/-125/-125
f -124/-124/-124 -123/-123/-123 -122/-122/-122
f -121/-121/-121 -122/-122/-122 -123/-123/-123
f -122/-122/-122 -121/-121/-121 -120/-120/-120
f -119/-119/-119 -120/-120/-120 -121/-121/-121
f -120/-120/-120 -119/-119/-119 -118/-118/-118
f -117/-117/-117 -118/-118/-118 -119/-119/-119
f -118/-118/-118 -117/-117/-117 -116/-116/-116
f -115/-115/-115 -116/-116/-116 -117/-117/-117
f -116/-116/-116 -115/-115/-115 -114/-114/-114
f -113/-113/-113 -114/-114/-114 -115/-115/-115
f -114/-114/-114 -113/-113/-113 -112/-112/-112
f -135/-135/-135 -112/-112/-112 -113/-113/-113
f -109/-109/-109 -111/-111/-111 -110/-110/-110
f -136/-136/-136 -108/-108/-108 -112/-112/-112
f -108/-108/-108 -136/-136/-136 -140/-140/-140
f -108/-108/-108 -140/-140/-140 -107/-107/-107
f -107/-107/-107 -140/-140/-140 -141/-141/-141
f -141/-141/-141 -106/-106/-106 -107/-107/-107
f -105/-105/-105 -107/-107/-107 -106/-106/-106
f -107/-107/-107 -105/-105/-105 -104/-104/-104
f -103/-103/-103 -104/-104/-104 -105/-105/-105
f -104/-104/-104 -103/-103/-103 -102/-102/-102
f -101/-101/-101 -102/-102/-102 -103/-103/-103
f -102/-102/-102 -101/-101/-101 -100/-100/-100
f -99/-99/-99 -100/-100/-100 -101/-101/-101
f -100/-100/-100 -99/-99/-99 -98/-98/-98
f -97/-97/-97 -98/-98/-98 -99/-99/-99
f -98/-98/-98 -97/-97/-97 -96/-96/-96
f -95/-95/-95 -96/-96/-96 -97/-97/-97
f -96/-96/-96 -95/-95/-95 -94/-94/-94
f -93/-93/-93 -94/-94/-94 -95/-95/-95
f -94/-94/-94 -93/-93/-93 -92/-92/-92
f -91/-91/-91 -92/-92/-92 -93/-93/-93
f -92/-92/-92 -91/-91/-91 -90/-90/-90
f -89/-89/-89 -90/-90/-90 -91/-91/-91
f -90/-90/-90 -89/-89/-89 -88/-88/-88
f -87/-87/-87 -88/-88/-88 -89/-89/-89
f -88/-88/-88 -87/-87/-87 -86/-86/-86
f -85/-85/-85 -86/-86/-86 -87/-87/-87
f -86/-86/-86 -85/-85/-85 -84/-84/-84
f -83/-83/-83 -84/-84/-84 -85/-85/-85
f -104/-104/-104 -108/-108/-108 -107/-107/-107
f -82/-82/-82 -108/-108/-108 -104/-104/-104
f -102/-102/-102 -82/-82/-82 -104/-104/-104
f -79/-79/-79 -81/-81/-81 -80/-80/-80
f -100/-100/-100 -79/-79/-79 -102/-102/-102
f -78/-78/-78 -79/-79/-79 -100/-100/-100
f -98/-98/-98 -78/-78/-78 -100/-100/-100
f -77/-77/-77 -78/-78/-78 -98/-98/-98
f -96/-96/-96 -77/-77/-77 -98/-98/-98
f -76/-76/-76 -77/-77/-77 -96/-96/-96
f -94/-94/-94 -76/-76/-76 -96/-96/-96
f -75/-75/-75 -76/-76/-76 -94/-94/-94
f -92/-92/-92 -75/-75/-75 -94/-94/-94
f -74/-74/-74 -75/-75/-75 -92/-92/-92
f -90/-90/-90 -74/-74/-74 -92/-92/-92
f -73/-73/-73 -74/-74/-74 -90/-90/-90
f -88/-88/-88 -73/-73/-73 -90/-90/-90
f -133/-133/-133 -73/-73/-73 -88/-88/-88
f -86/-86/-86 -133/-133/-133 -88/-88/-88
f -72/-72/-72 -133/-133/-133 -86/-86/-86
f -84/-84/-84 -71/-71/-71 -86/-86/-86
f -82/-82/-82 -112/-112/-112 -108/-108/-108
f -112/-112/-112 -82/-82/-82 -114/-114/-114
f -79/-79/-79 -114/-114/-114 -82/-82/-82
f -114/-114/-114 -79/-79/-79 -116/-116/-116
f -78/-78/-78 -116/-116/-116 -79/-79/-79
f -116/-116/-116 -78/-78/-78 -118/-118/-118
f -77/-77/-77 -118/-118/-118 -78/-78/-78
f -118/-118/-118 -77/-77/-77 -120/-120/-120
f -76/-76/-76 -120/-120/-120 -77/-77/-77
f -120/-120/-120 -76/-76/-76 -122/-122/-122
f -75/-75/-75 -122/-122/-122 -76/-76/-76
f -122/-122/-122 -75/-75/-75 -124/-124/-124
f -74/-74/-74 -124/-124/-124 -75/-75/-75
f -124/-124/-124 -74/-74/-74 -127/-127/-127
f -73/-73/-73 -127/-127/-127 -74/-74/-74
f -127/-127/-127 -73/-73/-73 -131/-131/-131
f -133/-133/-133 -131/-131/-131 -73/-73/-73
f -153/-153/-153 -70/-70/-70 -152/-152/-152
f -70/-70/-70 -153/-153/-153 -69/-69/-69
f -67/-67/-67 -69/-69/-69 -68/-68/-68
f -69/-69/-69 -67/-67/-67 -70/-70/-70
f -65/-65/-65 -68/-68/-68 -66/-66/-66
f -68/-68/-68 -65/-65/-65 -67/-67/-67
f -63/-63/-63 -66/-66/-66 -64/-64/-64
f -66/-66/-66 -63/-63/-63 -65/-65/-65
f -61/-61/-61 -64/-64/-64 -62/-62/-62
f -64/-64/-64 -61/-61/-61 -63/-63/-63
f -59/-59/-59 -62/-62/-62 -60/-60/-60
f -62/-62/-62 -59/-59/-59 -61/-61/-61
f -57/-57/-57 -60/-60/-60 -58/-58/-58
f -60/-60/-60 -57/-57/-57 -59/-59/-59
f -55/-55/-55 -58/-58/-58 -56/-56/-56
f -58/-58/-58 -55/-55/-55 -57/-57/-57
f -53/-53/-53 -56/-56/-56 -54/-54/-54
f -56/-56/-56 -53/-53/-53 -55/-55/-55
f -51/-51/-51 -54/-54/-54 -52/-52/-52
f -54/-54/-54 -51/-51/-51 -53/-53/-53
f -150/-150/-150 -52/-52/-52 -154/-154/-154
f -52/-52/-52 -150/-150/-150 -51/-51/-51
f -48/-48/-48 -50/-50/-50 -49/-49/-49
f -47/-47/-47 -48/-48/-48 -49/-49/-49
f -46/-46/-46 -47/-47/-47 -49/-49/-49
f -45/-45/-45 -46/-46/-46 -49/-49/-49
f -44/-44/-44 -45/-45/-45 -49/-49/-49
f -43/-43/-43 -44/-44/-44 -49/-49/-49
f -42/-42/-42 -43/-43/-43 -49/-49/-49
f -41/-41/-41 -42/-42/-42 -49/-49/-49
f -40/-40/-40 -41/-41/-41 -49/-49/-49
f -39/-39/-39 -40/-40/-40 -49/-49/-49
f -36/-36/-36 -38/-38/-38 -37/-37/-37
f -35/-35/-35 -36/-36/-36 -37/-37/-37
f -34/-34/-34 -36/-36/-36 -35/-35/-35
f -33/-33/-33 -34/-34/-34 -35/-35/-35
f -32/-32/-32 -34/-34/-34 -33/-33/-33
f -31/-31/-31 -32/-32/-32 -33/-33/-33
f -30/-30/-30 -32/-32/-32 -31/-31/-31
f -29/-29/-29 -30/-30/-30 -31/-31/-31
f -28/-28/-28 -30/-30/-30 -29/-29/-29
f -27/-27/-27 -28/-28/-28 -29/-29/-29
f -26/-26/-26 -28/-28/-28 -27/-27/-27
f -25/-25/-25 -26/-26/-26 -27/-27/-27
f -24/-24/-24 -26/-26/-26 -25/-25/-25
f -23/-23/-23 -24/-24/-24 -25/-25/-25
f -22/-22/-22 -24/-24/-24 -23/-23/-23
f -21/-21/-21 -22/-22/-22 -23/-23/-23
f -20/-20/-20 -22/-22/-22 -21/-21/-21
f -19/-19/-19 -20/-20/-20 -21/-21/-21
f -18/-18/-18 -20/-20/-20 -19/-19/-19
f -17/-17/-17 -18/-18/-18 -19/-19/-19
f -16/-16/-16 -18/-18/-18 -17/-17/-17
f -15/-15/-15 -16/-16/-16 -17/-17/-17
f -14/-14/-14 -16/-16/-16 -15/-15/-15
f -13/-13/-13 -14/-14/-14 -15/-15/-15
f -60/-60/-60 -62/-62/-62 -64/-64/-64
f -58/-58/-58 -60/-60/-60 -64/-64/-64
f -56/-56/-56 -58/-58/-58 -64/-64/-64
f -54/-54/-54 -56/-56/-56 -64/-64/-64
f -52/-52/-52 -54/-54/-54 -64/-64/-64
f -154/-154/-154 -52/-52/-52 -64/-64/-64
f -153/-153/-153 -154/-154/-154 -64/-64/-64
f -69/-69/-69 -153/-153/-153 -64/-64/-64
f -68/-68/-68 -69/-69/-69 -64/-64/-64
f -66/-66/-66 -68/-68/-68 -64/-64/-64
f -10/-10/-10 -12/-12/-12 -11/-11/-11
f -9/-9/-9 -10/-10/-10 -11/-11/-11
f -8/-8/-8 -9/-9/-9 -11/-11/-11
f -7/-7/-7 -8/-8/-8 -11/-11/-11
f -6/-6/-6 -7/-7/-7 -11/-11/-11
f -5/-5/-5 -6/-6/-6 -11/-11/-11
f -4/-4/-4 -5/-5/-5 -11/-11/-11
f -3/-3/-3 -4/-4/-4 -11/-11/-11
f -2/-2/-2 -3/-3/-3 -11/-11/-11
f -1/-1/-1 -2/-2/-2 -11/-11/-11

